<?xml version="1.0" standalone="no"?>
<!DOCTYPE svg PUBLIC "-//W3C//DTD SVG 20010904//EN"
 "http://www.w3.org/TR/2001/REC-SVG-20010904/DTD/svg10.dtd">
<svg version="1.0" xmlns="http://www.w3.org/2000/svg"
 width="1024.000000pt" height="1024.000000pt" viewBox="0 0 1024.000000 1024.000000"
 preserveAspectRatio="xMidYMid meet">

<g transform="translate(0.000000,1024.000000) scale(0.100000,-0.100000)"
fill="#000000" stroke="none">
<path d="M6105 7661 c-69 -17 -125 -63 -161 -131 -17 -32 -19 -71 -24 -437
l-5 -402 -34 -35 c-51 -52 -52 -53 -556 -157 -104 -22 -264 -56 -355 -75 -91
-19 -196 -41 -235 -49 -38 -8 -113 -24 -165 -35 -52 -11 -135 -29 -185 -40
-49 -10 -166 -35 -260 -55 -93 -20 -199 -43 -235 -50 -36 -7 -141 -29 -235
-49 -213 -47 -471 -101 -595 -126 -52 -11 -138 -29 -190 -40 -52 -12 -124 -27
-160 -34 -36 -8 -108 -23 -160 -34 -52 -11 -130 -28 -173 -37 l-78 -17 -53 56
c-60 62 -102 83 -286 146 -142 49 -328 114 -350 123 -8 4 -73 26 -145 51 -71
24 -182 63 -245 86 -349 125 -406 137 -501 101 -70 -27 -124 -78 -158 -150
l-26 -56 0 -1035 0 -1035 24 -58 c31 -76 101 -140 179 -162 91 -27 113 -22
477 107 77 27 156 55 175 63 32 12 91 33 370 131 226 79 387 138 415 152 17 8
51 38 77 65 l47 50 123 -27 c188 -41 306 -66 388 -83 41 -8 111 -23 155 -33
90 -20 191 -42 600 -130 105 -23 217 -47 250 -55 33 -7 94 -20 135 -29 41 -9
136 -30 210 -47 74 -16 167 -36 205 -44 39 -8 111 -24 160 -35 50 -11 122 -27
160 -35 88 -18 223 -47 345 -75 93 -20 143 -31 325 -69 423 -88 465 -101 523
-155 36 -35 46 -51 53 -92 4 -27 8 -226 8 -442 1 -331 3 -398 17 -430 18 -43
55 -85 104 -115 35 -22 41 -22 455 -22 l420 0 56 26 c31 15 89 57 129 95 41
38 568 562 1171 1164 854 852 1102 1105 1118 1140 30 66 28 157 -4 218 -17 34
-351 375 -1187 1214 -1271 1275 -1196 1206 -1336 1229 -66 10 -733 10 -777 0z
m808 -1495 c53 -57 145 -157 204 -223 59 -66 160 -176 222 -244 109 -118 239
-260 361 -394 99 -108 170 -192 170 -200 0 -4 -34 -43 -75 -87 -41 -43 -93
-108 -116 -143 -23 -36 -45 -65 -48 -64 -3 0 -86 91 -183 202 -97 111 -245
279 -329 372 -600 672 -718 808 -719 821 0 7 25 15 58 18 31 4 102 13 157 21
115 17 152 21 181 24 15 1 50 -30 117 -103z m-1464 -102 c11 -14 76 -85 143
-157 68 -72 150 -160 184 -196 241 -261 503 -542 639 -686 88 -94 223 -238
300 -320 142 -152 380 -402 422 -442 13 -12 23 -26 23 -32 0 -5 -38 -54 -84
-109 -89 -107 -146 -184 -146 -201 0 -20 -20 -21 -117 -6 -54 9 -138 22 -188
29 -49 8 -117 19 -150 25 -33 6 -120 20 -193 33 -124 20 -135 24 -159 52 -19
24 -428 466 -488 530 -23 24 -620 681 -759 836 -253 280 -349 382 -399 422
l-49 38 27 10 c14 5 31 10 38 10 6 0 38 7 71 15 34 8 142 33 241 55 198 45
462 106 540 125 56 13 73 8 104 -31z m-1418 -382 c75 -81 223 -244 329 -362
203 -225 366 -404 462 -505 31 -33 69 -73 83 -90 15 -16 64 -68 108 -115 45
-47 120 -125 166 -175 47 -49 127 -133 179 -187 51 -53 89 -98 85 -101 -5 -3
-29 -2 -53 3 -50 9 -102 18 -515 91 -269 47 -416 72 -507 86 -31 5 -54 24
-154 132 -65 69 -183 196 -263 281 -137 145 -183 194 -387 410 -399 422 -512
545 -506 552 4 4 52 14 107 22 148 21 371 55 540 81 83 12 159 23 170 24 14 0
64 -47 156 -147z m-1246 -219 c88 -97 200 -222 249 -277 49 -56 105 -119 125
-141 20 -22 104 -116 186 -210 83 -93 194 -218 248 -278 54 -60 96 -111 94
-113 -2 -2 -60 7 -128 20 -68 14 -187 37 -264 51 -187 35 -286 54 -370 70 -38
7 -171 31 -295 54 -281 52 -286 53 -283 77 1 10 8 64 14 119 13 100 18 559 9
690 l-5 70 50 11 c217 49 184 62 370 -143z"/>
</g>
</svg>
